<svg xmlns="http://www.w3.org/2000/svg" width="699" height="140" viewBox="0 0 699 140" fill="none"><g clip-path="url(#clip0)"><path d="M0 21.87L60.38 56.7L120.76 21.87V104.96L60.38 139.38L0 104.96V21.87Z" fill="white"></path><path d="M33.66 15.23L60.38 0L87.11 15.23L60.38 30.46L33.66 15.23Z" fill="white"></path><path d="M155.82 75.54C155.82 57.24 169.39 44.88 187.69 44.88C200.41 44.88 208.17 50.45 211.68 55.66L199.56 66.93C197.26 63.54 193.5 61.36 188.53 61.36C180.78 61.36 174.84 66.69 174.84 75.54C174.84 84.39 180.78 89.84 188.53 89.84C193.5 89.84 197.25 87.42 199.56 84.15L211.68 95.54C208.17 100.63 200.41 106.32 187.69 106.32C169.39 106.32 155.82 93.84 155.82 75.54Z" fill="white"></path><path d="M213.98 75.54C213.98 59.06 225.85 44.88 245.73 44.88C265.84 44.88 277.72 59.06 277.72 75.54C277.72 92.02 265.85 106.32 245.73 106.32C225.85 106.32 213.98 92.02 213.98 75.54ZM258.57 75.54C258.57 67.79 253.97 61.36 245.73 61.36C237.73 61.36 233.13 67.78 233.13 75.54C233.13 83.42 237.73 89.84 245.73 89.84C253.96 89.84 258.57 83.42 258.57 75.54Z" fill="white"></path><path d="M300.12 104.86L277.1 46.34H296.73L310.06 83.42L323.27 46.34H343.02L320 104.86H300.12Z" fill="white"></path><path d="M347.25 30.34C347.25 24.4 351.98 19.68 357.91 19.68C363.85 19.68 368.69 24.41 368.69 30.34C368.69 36.27 363.84 41.12 357.91 41.12C351.98 41.13 347.25 36.28 347.25 30.34ZM348.59 104.86V46.34H367.25V104.86H348.59Z" fill="white"></path><path d="M417.77 104.86V98.07C412.92 103.64 406.99 106.31 400.44 106.31C386.02 106.31 374.63 95.4 374.63 75.53C374.63 56.39 385.78 44.87 400.44 44.87C406.86 44.87 413.16 47.41 417.77 53.23V24.03H436.31V104.85H417.77V104.86ZM417.77 84.51V66.57C415.35 63.42 410.5 61.36 406.5 61.36C399.11 61.36 393.66 66.81 393.66 75.54C393.66 84.26 399.11 89.84 406.5 89.84C410.5 89.84 415.35 87.66 417.77 84.51Z" fill="white"></path><path d="M443.82 75.54C443.82 58.58 456.54 44.88 474.84 44.88C492.17 44.88 504.77 57.6 504.77 77.47V81.71H463.09C464.42 86.92 469.27 91.28 477.75 91.28C481.87 91.28 488.66 89.46 492.05 86.31L500.17 98.55C494.35 103.76 484.66 106.3 475.69 106.3C457.63 106.32 443.82 94.56 443.82 75.54ZM474.84 59.91C466.72 59.91 463.57 64.76 462.84 69H486.95C486.47 64.88 483.44 59.91 474.84 59.91Z" fill="white"></path><path d="M551.17 104.86V71.06C551.17 63.91 547.41 61.37 541.6 61.37C536.03 61.37 532.39 64.4 530.21 67.06V104.87H511.55V46.34H530.21V53.49C533.72 49.37 540.63 44.89 550.57 44.89C563.78 44.89 569.84 52.64 569.84 63.43V104.87H551.17V104.86Z" fill="white"></path><path d="M577.22 75.54C577.22 57.24 590.79 44.88 609.09 44.88C621.81 44.88 629.57 50.45 633.08 55.66L620.96 66.93C618.66 63.54 614.9 61.36 609.93 61.36C602.18 61.36 596.24 66.69 596.24 75.54C596.24 84.39 602.18 89.84 609.93 89.84C614.9 89.84 618.65 87.42 620.96 84.15L633.08 95.54C629.57 100.63 621.81 106.32 609.09 106.32C590.79 106.32 577.22 93.84 577.22 75.54Z" fill="white"></path><path d="M637.8 75.54C637.8 58.58 650.52 44.88 668.82 44.88C686.15 44.88 698.75 57.6 698.75 77.47V81.71H657.07C658.4 86.92 663.25 91.28 671.73 91.28C675.85 91.28 682.64 89.46 686.03 86.31L694.15 98.55C688.33 103.76 678.64 106.3 669.67 106.3C651.61 106.32 637.8 94.56 637.8 75.54ZM668.82 59.91C660.7 59.91 657.55 64.76 656.82 69H680.93C680.45 64.88 677.42 59.91 668.82 59.91Z" fill="white"></path></g><defs><clipPath id="clip0"><rect width="698.75" height="139.38" fill="white"></rect></clipPath></defs></svg>